<svg xmlns="http://www.w3.org/2000/svg" fill="none" viewBox="108.881908 53.87540983606557 136.888 31.540983606557376" style="max-height: 500px" width="136.888" height="31.540983606557376">
<path fill="#F8ED37" d="M97.1245 3.54492H2.92188V98.2176H97.1245V3.54492Z"/>
<path fill="#373435" d="M75.0799 3.54492L28.9531 98.2642H45.195L90.7649 3.54492H75.0799Z"/>
<path fill="white" d="M113.133 79.6086V58.8086H117.773V75.6911H127.843V79.6086H113.133Z"/>
<path fill="white" d="M151.788 79.6086L145.523 58.8086H150.118L155.593 77.2301H153.273L158.981 58.8086H163.111L168.587 77.2301H166.359L171.974 58.8086H176.244L169.979 79.6086H165.199L160.28 63.4256H161.533L156.521 79.562H151.788V79.6086Z"/>
<path fill="white" d="M197.222 79.6086V71.1207L198.243 74.0122L189.797 58.8086H194.53L200.981 70.4678H198.289L204.786 58.8086H209.148L200.702 74.0122L201.677 71.1207V79.6086H197.222Z"/>
<path fill="white" d="M224.414 79.6086V58.8086H232.813C234.809 58.8086 236.572 59.2283 238.104 60.1144C239.635 60.9539 240.842 62.1664 241.677 63.7055C242.559 65.2445 242.976 67.0633 242.976 69.2086C242.976 71.3072 242.559 73.1261 241.677 74.6651C240.795 76.2041 239.635 77.4167 238.104 78.3028C236.572 79.1422 234.809 79.6086 232.813 79.6086H224.414ZM228.683 75.6445H232.581C233.834 75.6445 234.902 75.3646 235.783 74.8516C236.711 74.3386 237.408 73.5925 237.872 72.6131C238.382 71.6337 238.614 70.5144 238.614 69.2086C238.614 67.9028 238.382 66.7368 237.872 65.7575C237.361 64.7781 236.665 64.0785 235.783 63.5189C234.855 63.0059 233.788 62.7261 232.581 62.7261H228.683V75.6445Z"/>
<path fill="#FFF212" d="M141.069 55.918L127.844 83.1072H131.974L145.06 55.918H141.069Z"/>
<path fill="#FFF212" d="M184.6 55.918L171.375 83.1072H175.505L188.591 55.918H184.6Z"/>
<path fill="#FFF212" d="M218.241 55.918L205.016 83.1072H209.146L222.232 55.918H218.241Z"/>
<path fill="white" d="M116.758 89.916V97.0981H115.273V89.916H116.758Z"/>
<path fill="white" d="M120.147 92.0605C120.518 92.0605 120.843 92.1072 121.167 92.2471C121.492 92.387 121.724 92.5269 121.956 92.7601C122.188 92.9933 122.328 93.2265 122.467 93.5529C122.606 93.8794 122.652 94.2058 122.652 94.6256C122.652 94.9987 122.606 95.3718 122.467 95.6982C122.328 96.0247 122.188 96.3045 121.956 96.491C121.724 96.7242 121.492 96.8641 121.167 97.004C120.843 97.144 120.518 97.1906 120.147 97.1906C119.775 97.1906 119.404 97.144 119.126 97.004C118.801 96.8641 118.569 96.7242 118.337 96.491C118.105 96.2579 117.919 95.978 117.826 95.6982C117.687 95.3718 117.641 95.0453 117.641 94.6256C117.641 94.2525 117.687 93.8794 117.826 93.5529C117.965 93.2265 118.105 92.9933 118.337 92.7601C118.569 92.5269 118.847 92.387 119.126 92.2471C119.45 92.1072 119.775 92.0605 120.147 92.0605ZM120.147 96.0713C120.471 96.0713 120.75 95.9314 120.889 95.6982C121.028 95.465 121.121 95.0919 121.121 94.5789C121.121 94.0659 121.028 93.7395 120.889 93.5063C120.75 93.2731 120.471 93.1332 120.147 93.1332C119.775 93.1332 119.543 93.2731 119.358 93.5063C119.218 93.7395 119.126 94.1126 119.126 94.5789C119.126 95.0453 119.218 95.4184 119.358 95.6982C119.543 95.9314 119.822 96.0713 120.147 96.0713Z"/>
<path fill="white" d="M125.67 92.0605C126.041 92.0605 126.366 92.1072 126.691 92.2471C127.016 92.387 127.248 92.5269 127.48 92.7601C127.712 92.9933 127.851 93.2265 127.99 93.5529C128.129 93.8794 128.176 94.2058 128.176 94.6256C128.176 94.9987 128.129 95.3718 127.99 95.6982C127.851 96.0247 127.712 96.3045 127.48 96.491C127.248 96.7242 127.016 96.8641 126.691 97.004C126.366 97.144 126.041 97.1906 125.67 97.1906C125.299 97.1906 124.927 97.144 124.649 97.004C124.324 96.8641 124.092 96.7242 123.86 96.491C123.628 96.2579 123.442 95.978 123.35 95.6982C123.21 95.3718 123.164 95.0453 123.164 94.6256C123.164 94.2525 123.21 93.8794 123.35 93.5529C123.489 93.2265 123.628 92.9933 123.86 92.7601C124.092 92.5269 124.371 92.387 124.649 92.2471C124.974 92.1072 125.299 92.0605 125.67 92.0605ZM125.67 96.0713C125.995 96.0713 126.273 95.9314 126.412 95.6982C126.552 95.465 126.644 95.0919 126.644 94.5789C126.644 94.0659 126.552 93.7395 126.412 93.5063C126.273 93.2731 125.995 93.1332 125.67 93.1332C125.299 93.1332 125.067 93.2731 124.881 93.5063C124.742 93.7395 124.649 94.1126 124.649 94.5789C124.649 95.0453 124.742 95.4184 124.881 95.6982C125.067 95.9314 125.345 96.0713 125.67 96.0713Z"/>
<path fill="white" d="M130.493 89.916V93.9268H130.725C130.818 93.9268 130.91 93.9268 130.957 93.8801C131.003 93.8335 131.05 93.7869 131.096 93.7402L132.024 92.3411C132.071 92.2479 132.163 92.2012 132.21 92.1546C132.303 92.1079 132.395 92.1079 132.488 92.1079H133.834L132.581 93.8801C132.535 93.9734 132.442 94.0201 132.395 94.1133C132.303 94.16 132.256 94.2532 132.163 94.2999C132.303 94.3931 132.442 94.5331 132.535 94.7196L133.927 97.0981H132.581C132.488 97.0981 132.395 97.0981 132.303 97.0514C132.21 97.0048 132.163 96.9582 132.117 96.8649L131.189 95.0927C131.142 94.9994 131.096 94.9528 131.05 94.9528C131.003 94.9062 130.91 94.9061 130.818 94.9061H130.539V97.0981H129.008V89.916H130.493Z"/>
<path fill="white" d="M212.211 94.5318C212.211 92.7596 213.325 91.8269 214.578 91.8269C215.366 91.8269 215.831 92.2 216.202 92.6197V90.0547H217.64V97.0968H216.202V96.3507C215.831 96.8637 215.366 97.1901 214.578 97.1901C213.325 97.1901 212.211 96.2574 212.211 94.5318ZM216.155 94.5318C216.155 93.6457 215.599 93.0861 214.902 93.0861C214.206 93.0861 213.65 93.6457 213.65 94.5318C213.65 95.3713 214.206 95.9776 214.902 95.9776C215.599 95.9309 216.155 95.3713 216.155 94.5318Z"/>
<path fill="white" d="M218.477 94.5311C218.477 93.0387 219.544 91.8262 221.029 91.8262C222.746 91.8262 223.535 93.1786 223.535 94.6244C223.535 94.7177 223.535 94.8576 223.535 94.9975H219.962C220.101 95.6504 220.565 96.0235 221.214 96.0235C221.725 96.0235 222.05 95.8836 222.467 95.5105L223.303 96.2567C222.792 96.8629 222.143 97.236 221.214 97.236C219.637 97.1894 218.477 96.1168 218.477 94.5311ZM222.096 94.1114C222.003 93.4585 221.632 92.9921 221.029 92.9921C220.426 92.9921 220.008 93.4118 219.915 94.1114H222.096Z"/>
<path fill="white" d="M224.047 96.3968L224.65 95.4174C225.207 95.8372 225.764 96.0237 226.274 96.0237C226.692 96.0237 226.878 95.8838 226.878 95.6506C226.878 95.3242 226.367 95.2309 225.81 95.0443C225.068 94.8578 224.279 94.4847 224.279 93.5053C224.279 92.4327 225.114 91.873 226.182 91.873C226.831 91.873 227.527 92.1062 228.084 92.4793L227.527 93.5053C227.017 93.2255 226.506 93.039 226.135 93.039C225.764 93.039 225.578 93.1789 225.578 93.4121C225.578 93.6919 226.089 93.8784 226.646 94.0183C227.388 94.2515 228.223 94.6246 228.223 95.5573C228.223 96.7233 227.388 97.2363 226.274 97.2363C225.485 97.1896 224.697 96.9565 224.047 96.3968Z"/>
<path fill="white" d="M229.102 90.0547H230.633V91.3605H229.102V90.0547ZM229.148 91.9202H230.587V97.0968H229.148V91.9202Z"/>
<path fill="white" d="M231.795 98.1221L232.305 97.0029C232.862 97.2827 233.373 97.4692 234.069 97.4692C235.09 97.4692 235.554 97.0029 235.554 96.0701V95.8369C235.136 96.3499 234.672 96.6764 233.883 96.6764C232.677 96.6764 231.609 95.7903 231.609 94.2513C231.609 92.7123 232.723 91.8262 233.883 91.8262C234.672 91.8262 235.136 92.1526 235.554 92.619V91.9195H236.992V95.9302C236.992 96.8629 236.76 97.5159 236.343 97.9822C235.832 98.4952 235.136 98.6818 234.115 98.6818C233.234 98.6351 232.445 98.4486 231.795 98.1221ZM235.507 94.2513C235.507 93.5051 234.951 93.0387 234.254 93.0387C233.558 93.0387 233.002 93.5517 233.002 94.2513C233.002 94.9975 233.512 95.4638 234.254 95.4638C234.997 95.4638 235.507 94.9508 235.507 94.2513Z"/>
<path fill="white" d="M238.062 91.9195H239.547V92.6656C239.872 92.2459 240.336 91.8262 241.079 91.8262C242.193 91.8262 242.842 92.5724 242.842 93.7383V97.0961H241.404V94.2047C241.404 93.5051 241.079 93.132 240.522 93.132C239.965 93.132 239.594 93.5051 239.594 94.2047V97.0961H238.062V91.9195Z"/>
<path fill="white" d="M249.477 94.5318C249.477 92.7596 250.59 91.8269 251.843 91.8269C252.632 91.8269 253.096 92.2 253.467 92.6197V90.0547H254.906V97.0968H253.467V96.3507C253.096 96.8637 252.632 97.1901 251.843 97.1901C250.637 97.1901 249.477 96.2574 249.477 94.5318ZM253.467 94.5318C253.467 93.6457 252.911 93.0861 252.214 93.0861C251.518 93.0861 250.962 93.6457 250.962 94.5318C250.962 95.3713 251.518 95.9776 252.214 95.9776C252.911 95.9309 253.467 95.3713 253.467 94.5318Z"/>
<path fill="white" d="M256.062 90.0547H257.594V91.3605H256.062V90.0547ZM256.062 91.9202H257.501V97.0968H256.062V91.9202Z"/>
<path fill="white" d="M258.756 98.1221L259.266 97.0029C259.823 97.2827 260.334 97.4692 261.03 97.4692C262.051 97.4692 262.515 97.0029 262.515 96.0701V95.8369C262.097 96.3499 261.633 96.6764 260.844 96.6764C259.638 96.6764 258.57 95.7903 258.57 94.2513C258.57 92.7123 259.684 91.8262 260.844 91.8262C261.633 91.8262 262.097 92.1526 262.515 92.619V91.9195H263.953V95.9302C263.953 96.8629 263.721 97.5159 263.304 97.9822C262.793 98.4952 262.097 98.6818 261.076 98.6818C260.194 98.6351 259.406 98.4486 258.756 98.1221ZM262.468 94.2513C262.468 93.5051 261.911 93.0387 261.215 93.0387C260.519 93.0387 259.962 93.5517 259.962 94.2513C259.962 94.9975 260.473 95.4638 261.215 95.4638C261.911 95.4638 262.468 94.9508 262.468 94.2513Z"/>
<path fill="white" d="M265.07 90.0547H266.602V91.3605H265.07V90.0547ZM265.117 91.9202H266.555V97.0968H265.117V91.9202Z"/>
<path fill="white" d="M267.994 95.6051V93.1334H267.391V91.8742H267.994V90.5684H269.432V91.8742H270.639V93.1334H269.432V95.3253C269.432 95.6518 269.572 95.8383 269.896 95.8383C270.175 95.8383 270.407 95.7917 270.639 95.6518V96.8177C270.314 97.0042 269.989 97.0975 269.479 97.0975C268.597 97.1908 267.994 96.8177 267.994 95.6051Z"/>
<path fill="white" d="M271.242 95.604C271.242 94.4847 272.077 93.9251 273.33 93.9251C273.841 93.9251 274.212 94.0183 274.583 94.1582V94.065C274.583 93.4587 274.212 93.1322 273.47 93.1322C272.913 93.1322 272.495 93.2255 272.031 93.4121L271.66 92.2928C272.217 92.0596 272.774 91.873 273.655 91.873C274.444 91.873 275.001 92.0596 275.419 92.4327C275.79 92.8058 275.976 93.4121 275.976 94.065V97.0497H274.583V96.5367C274.212 96.9098 273.748 97.1896 273.006 97.1896C272.031 97.1896 271.242 96.63 271.242 95.604ZM274.583 95.2775V94.9977C274.305 94.9044 274.027 94.8112 273.655 94.8112C273.052 94.8112 272.634 95.0443 272.634 95.5107C272.634 95.8838 272.959 96.117 273.423 96.117C274.119 96.1636 274.583 95.7905 274.583 95.2775Z"/>
<path fill="white" d="M277.086 90.0547H278.525V97.0968H277.086V90.0547Z"/>
<path fill="white" d="M134.015 93.8809H136.196L136.103 94.5804H133.922L134.015 93.8809Z"/>
<path fill="white" d="M136.891 92.248H137.54C137.587 92.248 137.633 92.248 137.68 92.2947C137.726 92.3413 137.726 92.388 137.726 92.4346L138.19 95.5593C138.19 95.6525 138.236 95.7924 138.236 95.8857C138.236 95.979 138.236 96.0723 138.236 96.2122C138.283 96.1189 138.329 96.0256 138.376 95.8857C138.422 95.7924 138.468 95.6525 138.515 95.5593L139.814 92.4346C139.814 92.388 139.861 92.3413 139.907 92.2947C139.953 92.248 140 92.248 140.046 92.248H140.417C140.464 92.248 140.51 92.248 140.557 92.2947C140.603 92.3413 140.603 92.388 140.603 92.4346L141.16 95.5593C141.16 95.6525 141.206 95.7924 141.206 95.8857C141.206 95.979 141.206 96.1189 141.253 96.2122C141.299 96.1189 141.299 96.0256 141.346 95.8857C141.392 95.7924 141.392 95.6525 141.438 95.5593L142.645 92.4346C142.645 92.388 142.691 92.3413 142.738 92.2947C142.784 92.248 142.83 92.248 142.877 92.248H143.48L141.438 97.0983H140.789C140.696 97.0983 140.649 97.0516 140.649 96.9584L140.046 93.6938C140.046 93.6471 140.046 93.6005 140 93.5539C140 93.5072 140 93.4606 140 93.414C140 93.4606 139.953 93.5072 139.953 93.5539C139.953 93.6005 139.907 93.6471 139.907 93.6938L138.515 96.9584C138.468 97.0516 138.422 97.0983 138.329 97.0983H137.726L136.891 92.248Z"/>
<path fill="white" d="M143.664 97.0988L144.499 90.0566H145.335L144.917 93.3212C145.149 92.9481 145.427 92.6683 145.752 92.4818C146.077 92.2952 146.356 92.2019 146.68 92.2019C147.052 92.2019 147.33 92.3418 147.516 92.575C147.701 92.8082 147.794 93.1813 147.794 93.6477C147.794 93.6943 147.794 93.7876 147.794 93.8342C147.794 93.8809 147.794 93.9741 147.794 94.0674L147.423 97.1454H146.634L147.005 94.0674C147.005 94.0208 147.005 93.9275 147.005 93.8809C147.005 93.8342 147.005 93.7876 147.005 93.6943C147.005 93.4145 146.959 93.2279 146.866 93.088C146.773 92.9481 146.634 92.9015 146.402 92.9015C146.263 92.9015 146.124 92.9481 145.984 93.0414C145.845 93.1347 145.706 93.2279 145.567 93.3678C145.427 93.5078 145.288 93.6943 145.149 93.8809C145.01 94.0674 144.917 94.3006 144.824 94.5804L144.499 97.1454H143.664V97.0988Z"/>
<path fill="white" d="M152.205 97.098H151.741C151.648 97.098 151.555 97.0514 151.509 97.0048C151.463 96.9581 151.463 96.8649 151.463 96.7716L151.555 95.7922C151.463 95.9787 151.323 96.1653 151.184 96.3518C151.045 96.5384 150.906 96.6783 150.767 96.7716C150.627 96.8649 150.442 96.9581 150.302 97.0514C150.117 97.098 149.978 97.1447 149.792 97.1447C149.606 97.1447 149.421 97.098 149.282 97.0514C149.142 96.9581 149.003 96.8648 148.864 96.7249C148.771 96.585 148.678 96.3985 148.632 96.2119C148.585 95.9788 148.539 95.7456 148.539 95.4657C148.539 95.1859 148.585 94.9061 148.632 94.6263C148.725 94.3465 148.817 94.1133 148.957 93.8335C149.096 93.6003 149.235 93.3671 149.421 93.1805C149.606 92.994 149.792 92.8074 150.024 92.6675C150.256 92.5276 150.488 92.3877 150.767 92.3411C151.045 92.2478 151.277 92.2012 151.602 92.2012C151.787 92.2012 152.019 92.2012 152.205 92.2478C152.391 92.2944 152.576 92.3411 152.762 92.4344L152.205 97.098ZM150.117 96.4451C150.256 96.4451 150.442 96.3985 150.581 96.3052C150.72 96.2119 150.859 96.072 150.999 95.8855C151.138 95.6989 151.277 95.5124 151.37 95.2792C151.463 95.046 151.602 94.7662 151.695 94.4864L151.88 92.8541C151.834 92.8075 151.741 92.7608 151.695 92.7608C151.648 92.7608 151.555 92.7608 151.509 92.7608C151.323 92.7608 151.138 92.8075 150.952 92.8541C150.767 92.9007 150.627 92.994 150.442 93.1339C150.302 93.2272 150.163 93.3671 150.024 93.5536C149.885 93.6936 149.792 93.8801 149.699 94.0666C149.606 94.2532 149.56 94.4397 149.467 94.6729C149.421 94.8595 149.374 95.0927 149.374 95.3258C149.374 96.072 149.653 96.4451 150.117 96.4451Z"/>
<path fill="white" d="M153.879 96.1653C153.879 96.1653 153.879 96.1186 153.879 96.072C153.879 96.0253 153.879 95.9787 153.879 95.9321C153.879 95.8854 153.879 95.7922 153.879 95.6989C153.879 95.6056 153.925 95.4657 153.925 95.3258L154.204 92.9007H153.647C153.601 92.9007 153.554 92.9007 153.554 92.854C153.508 92.8074 153.508 92.8074 153.508 92.7608V92.7141C153.508 92.6675 153.508 92.6675 153.508 92.6209C153.508 92.5742 153.508 92.5276 153.508 92.5276C153.508 92.4809 153.508 92.4343 153.508 92.4343L154.25 92.341L154.622 90.8487C154.622 90.802 154.668 90.7554 154.714 90.7087C154.761 90.6621 154.807 90.6621 154.854 90.6621H155.318L155.086 92.341H156.339L156.246 92.9473H154.993L154.714 95.3258C154.714 95.4657 154.668 95.559 154.668 95.6522C154.668 95.7455 154.668 95.7922 154.668 95.8388C154.668 95.8854 154.668 95.9321 154.668 95.9321V95.9787C154.668 96.1186 154.714 96.2585 154.761 96.3518C154.854 96.4451 154.946 96.4917 155.086 96.4917C155.178 96.4917 155.225 96.4917 155.318 96.4451C155.364 96.3984 155.457 96.3984 155.503 96.3518C155.55 96.3052 155.596 96.3052 155.642 96.2585C155.689 96.2119 155.689 96.2119 155.735 96.2119C155.782 96.2119 155.782 96.2119 155.782 96.2119L155.828 96.2585L156.014 96.6783C155.874 96.8182 155.689 96.9114 155.503 97.0047C155.318 97.098 155.086 97.1446 154.9 97.1446C154.575 97.1446 154.343 97.0514 154.157 96.9114C153.972 96.7249 153.879 96.4917 153.879 96.1653Z"/>
<path fill="white" d="M156.937 93.8809H159.118L159.025 94.5804H156.844L156.937 93.8809Z"/>
<path fill="white" d="M160.926 98.5438C160.88 98.6837 160.741 98.7303 160.648 98.7303H160.045L161.065 96.8182L159.812 92.2478H160.509C160.555 92.2478 160.648 92.2478 160.648 92.2944C160.694 92.3411 160.694 92.3877 160.694 92.4344L161.483 95.4657C161.483 95.5124 161.529 95.6057 161.529 95.6523C161.529 95.6989 161.53 95.7922 161.576 95.8388C161.622 95.7922 161.622 95.6989 161.669 95.6523C161.715 95.6057 161.715 95.5124 161.762 95.4657L163.293 92.3877C163.339 92.3411 163.339 92.2944 163.386 92.2478C163.432 92.2012 163.479 92.2012 163.525 92.2012H164.175L160.926 98.5438Z"/>
<path fill="white" d="M165.896 97.1444C165.617 97.1444 165.385 97.0978 165.153 97.0045C164.921 96.9112 164.736 96.7713 164.596 96.6314C164.457 96.4449 164.318 96.2583 164.225 95.9785C164.132 95.7453 164.086 95.4655 164.086 95.139C164.086 94.7193 164.132 94.3462 164.272 93.9731C164.411 93.6 164.55 93.3202 164.782 93.0404C165.014 92.7606 165.246 92.574 165.571 92.3875C165.849 92.2476 166.174 92.1543 166.545 92.1543C166.824 92.1543 167.056 92.2009 167.288 92.2942C167.52 92.3875 167.706 92.5274 167.845 92.6673C167.984 92.8538 168.123 93.0404 168.216 93.3202C168.309 93.5534 168.355 93.8332 168.355 94.1597C168.355 94.5794 168.309 94.9525 168.17 95.3256C168.03 95.6987 167.891 96.0251 167.659 96.2583C167.427 96.5381 167.195 96.7247 166.87 96.9112C166.545 97.0978 166.221 97.1444 165.896 97.1444ZM165.989 96.4915C166.221 96.4915 166.453 96.4449 166.638 96.305C166.824 96.1651 167.009 96.0251 167.102 95.792C167.241 95.5588 167.334 95.3256 167.427 95.0458C167.52 94.766 167.52 94.4861 167.52 94.1597C167.52 93.6933 167.427 93.3668 167.241 93.1337C167.056 92.9005 166.824 92.8072 166.499 92.8072C166.267 92.8072 166.035 92.8538 165.849 92.9938C165.664 93.1337 165.478 93.2736 165.385 93.5068C165.246 93.7399 165.153 93.9731 165.06 94.253C164.968 94.5328 164.968 94.8126 164.968 95.139C164.968 95.6054 165.06 95.9319 165.246 96.1651C165.385 96.3982 165.664 96.4915 165.989 96.4915Z"/>
<path fill="white" d="M170.3 92.248L169.929 95.3261C169.929 95.3727 169.929 95.466 169.929 95.5126C169.929 95.5593 169.929 95.6059 169.929 95.6992C169.929 95.979 169.975 96.1655 170.068 96.3054C170.161 96.4454 170.3 96.492 170.532 96.492C170.671 96.492 170.81 96.4454 170.996 96.3521C171.135 96.2588 171.321 96.1655 171.46 96.0256C171.599 95.8857 171.738 95.6992 171.878 95.5126C172.017 95.3261 172.11 95.0929 172.202 94.8131L172.481 92.2947H173.316L172.713 97.1449H172.295C172.202 97.1449 172.11 97.1449 172.063 97.0983C172.017 97.0516 171.97 97.005 171.97 96.9117C171.97 96.9117 171.97 96.8651 171.97 96.8185C171.97 96.7718 171.97 96.7252 171.97 96.6319C171.97 96.5853 171.97 96.492 171.97 96.4454C171.97 96.3987 171.97 96.3521 171.97 96.3521L172.017 95.979C171.738 96.3987 171.46 96.7252 171.135 96.9117C170.81 97.1449 170.485 97.2382 170.161 97.2382C169.789 97.2382 169.511 97.0983 169.325 96.8651C169.14 96.6319 169.047 96.2588 169.047 95.7924C169.047 95.7458 169.047 95.6525 169.047 95.6059C169.047 95.5593 169.047 95.466 169.047 95.3727L169.418 92.2947H170.3V92.248Z"/>
<path fill="white" d="M175.365 89.916C175.411 90.0559 175.457 90.1492 175.504 90.2891C175.55 90.429 175.55 90.5223 175.55 90.6622C175.55 90.9887 175.457 91.2685 175.318 91.5949C175.133 91.8748 174.901 92.1546 174.622 92.3878L174.39 92.2479C174.344 92.2012 174.344 92.2012 174.344 92.1546C174.344 92.1079 174.344 92.1079 174.344 92.0613C174.344 92.0613 174.39 92.0147 174.437 91.968C174.483 91.9214 174.529 91.8281 174.576 91.7815C174.622 91.6882 174.669 91.6416 174.715 91.5483C174.761 91.455 174.808 91.3618 174.808 91.2685C174.854 91.1752 174.854 91.0819 174.854 90.942C174.854 90.8487 174.854 90.7555 174.808 90.7088C174.808 90.6156 174.761 90.5223 174.715 90.429V90.3824C174.715 90.2891 174.761 90.2425 174.854 90.1958L175.365 89.916Z"/>
<path fill="white" d="M175.875 92.248H176.571C176.617 92.248 176.664 92.248 176.71 92.2947C176.757 92.3413 176.757 92.388 176.803 92.4346L177.499 95.5593C177.546 95.6992 177.546 95.7924 177.546 95.9323C177.546 96.0723 177.546 96.1655 177.592 96.2588C177.638 96.1655 177.685 96.0256 177.685 95.9323C177.731 95.8391 177.778 95.6992 177.824 95.5593L179.309 92.4346C179.355 92.388 179.355 92.3413 179.402 92.2947C179.448 92.248 179.495 92.248 179.541 92.248H180.191L177.778 97.0983H177.082L175.875 92.248Z"/>
<path fill="white" d="M184.086 93.2733C184.086 93.5065 184.039 93.6931 183.946 93.833C183.854 94.0195 183.714 94.1594 183.482 94.2993C183.25 94.4393 182.925 94.5792 182.554 94.6724C182.137 94.7657 181.626 94.859 181.023 94.9056C181.023 94.9523 181.023 94.9523 181.023 94.9989C181.023 95.0455 181.023 95.0455 181.023 95.0922C181.023 95.5119 181.116 95.8384 181.301 96.0715C181.487 96.3047 181.765 96.398 182.137 96.398C182.276 96.398 182.415 96.398 182.554 96.3514C182.693 96.3047 182.786 96.2581 182.879 96.2115C182.972 96.1648 183.065 96.1182 183.111 96.0715C183.157 96.0249 183.25 95.9783 183.297 95.9316C183.343 95.885 183.436 95.8384 183.482 95.7917C183.529 95.7451 183.575 95.7451 183.621 95.7451C183.668 95.7451 183.714 95.7917 183.761 95.8384L183.993 96.1182C183.854 96.3047 183.668 96.4446 183.529 96.5379C183.389 96.6778 183.204 96.7711 183.065 96.8177C182.925 96.911 182.74 96.9576 182.554 97.0043C182.369 97.0509 182.183 97.0509 181.997 97.0509C181.719 97.0509 181.487 97.0043 181.255 96.911C181.023 96.8177 180.837 96.6778 180.698 96.5379C180.559 96.3514 180.42 96.1648 180.327 95.9316C180.234 95.6985 180.188 95.4186 180.188 95.1388C180.188 94.9056 180.234 94.6258 180.28 94.3926C180.327 94.1594 180.42 93.9263 180.512 93.6931C180.605 93.4599 180.744 93.2733 180.884 93.0868C181.023 92.9002 181.208 92.7137 181.394 92.5738C181.58 92.4339 181.765 92.3406 181.997 92.2473C182.229 92.1541 182.461 92.1074 182.74 92.1074C182.972 92.1074 183.204 92.1541 183.389 92.2007C183.575 92.294 183.714 92.3406 183.807 92.4805C183.9 92.5738 183.993 92.7137 184.039 92.8536C184.086 93.0402 184.086 93.1801 184.086 93.2733ZM182.647 92.807C182.461 92.807 182.276 92.8536 182.09 92.9469C181.904 93.0402 181.765 93.1334 181.626 93.2733C181.487 93.4133 181.394 93.5998 181.301 93.7863C181.208 93.9729 181.116 94.2061 181.069 94.4393C181.58 94.3926 181.951 94.2994 182.229 94.2527C182.508 94.1594 182.74 94.1128 182.925 94.0195C183.065 93.9263 183.204 93.833 183.25 93.7397C183.297 93.6464 183.343 93.5065 183.343 93.4133C183.343 93.3666 183.343 93.2733 183.297 93.2267C183.25 93.1801 183.25 93.0868 183.157 93.0402C183.111 92.9935 183.018 92.9469 182.925 92.9002C182.879 92.807 182.786 92.807 182.647 92.807Z"/>
<path fill="white" d="M184.827 93.8809H187.008L186.915 94.5804H184.734L184.827 93.8809Z"/>
<path fill="white" d="M190.95 97.0986C190.857 97.0986 190.764 97.0519 190.718 97.0053C190.672 96.9586 190.672 96.8654 190.672 96.7721L190.764 95.7461C190.625 95.9326 190.532 96.1192 190.347 96.3057C190.208 96.4923 190.068 96.6322 189.883 96.7255C189.744 96.8654 189.558 96.9586 189.372 97.0053C189.187 97.0519 189.047 97.0986 188.862 97.0986C188.444 97.0986 188.119 96.9586 187.887 96.6322C187.655 96.3524 187.562 95.886 187.562 95.3264C187.562 95.0465 187.609 94.8134 187.655 94.5335C187.702 94.2537 187.795 94.0205 187.887 93.7873C187.98 93.5542 188.119 93.321 188.259 93.1344C188.398 92.9479 188.537 92.7613 188.723 92.6214C188.908 92.4815 189.094 92.3416 189.279 92.2483C189.465 92.1551 189.697 92.1084 189.929 92.1084C190.161 92.1084 190.393 92.1551 190.579 92.2483C190.764 92.3416 190.95 92.4815 191.089 92.6681L191.414 90.0098H192.249L191.368 97.0519H190.95V97.0986ZM189.233 96.4923C189.372 96.4923 189.558 96.4456 189.697 96.3524C189.836 96.2591 190.022 96.1192 190.161 95.9793C190.3 95.7927 190.44 95.6062 190.579 95.373C190.718 95.1398 190.811 94.9066 190.904 94.6268L191.043 93.3676C190.904 93.1811 190.764 93.0878 190.625 92.9945C190.486 92.9012 190.3 92.9012 190.115 92.9012C189.883 92.9012 189.651 92.9945 189.419 93.1344C189.233 93.2743 189.047 93.4609 188.908 93.6941C188.769 93.9273 188.676 94.2071 188.583 94.4869C188.491 94.7667 188.491 95.0465 188.491 95.373C188.491 95.7461 188.537 96.0259 188.676 96.2591C188.769 96.3524 188.955 96.4923 189.233 96.4923Z"/>
<path fill="white" d="M194.388 97.1444C194.109 97.1444 193.877 97.0978 193.645 97.0045C193.413 96.9112 193.228 96.7713 193.089 96.6314C192.949 96.4449 192.81 96.2583 192.717 95.9785C192.625 95.7453 192.578 95.4655 192.578 95.139C192.578 94.7193 192.625 94.3462 192.764 93.9731C192.903 93.6 193.042 93.3202 193.274 93.0404C193.506 92.7606 193.738 92.574 194.063 92.3875C194.342 92.2476 194.666 92.1543 195.038 92.1543C195.316 92.1543 195.548 92.2009 195.78 92.2942C196.012 92.3875 196.198 92.5274 196.337 92.6673C196.476 92.8538 196.615 93.0404 196.708 93.3202C196.801 93.5534 196.847 93.8332 196.847 94.1597C196.847 94.5794 196.801 94.9525 196.662 95.3256C196.523 95.6987 196.383 96.0251 196.151 96.2583C195.919 96.5381 195.687 96.7247 195.362 96.9112C195.084 97.0978 194.759 97.1444 194.388 97.1444ZM194.481 96.4915C194.713 96.4915 194.945 96.4449 195.13 96.305C195.316 96.1651 195.502 96.0251 195.594 95.792C195.734 95.5588 195.826 95.3256 195.919 95.0458C196.012 94.766 196.012 94.4861 196.012 94.1597C196.012 93.6933 195.919 93.3668 195.734 93.1337C195.548 92.9005 195.316 92.8072 194.991 92.8072C194.759 92.8072 194.527 92.8538 194.342 92.9938C194.156 93.1337 193.97 93.2736 193.877 93.5068C193.738 93.7399 193.645 93.9731 193.553 94.253C193.46 94.5328 193.46 94.8126 193.46 95.139C193.46 95.6054 193.553 95.9319 193.738 96.1651C193.877 96.3982 194.156 96.4915 194.481 96.4915Z"/>
<path fill="white" d="M197.453 97.0978L198.01 92.2476H198.428C198.613 92.2476 198.706 92.3408 198.706 92.5274L198.613 93.4601C198.892 93.0404 199.17 92.7139 199.495 92.4808C199.82 92.2476 200.145 92.1543 200.516 92.1543C200.887 92.1543 201.166 92.2942 201.351 92.5274C201.537 92.7606 201.63 93.1337 201.63 93.6C201.63 93.6467 201.63 93.7399 201.63 93.7866C201.63 93.8332 201.63 93.9265 201.63 94.0198L201.258 97.0978H200.469L200.841 94.0198C200.841 93.9731 200.841 93.8799 200.841 93.8332C200.841 93.7866 200.841 93.7399 200.841 93.6467C200.841 93.3669 200.794 93.1803 200.701 93.087C200.609 92.9471 200.469 92.9005 200.237 92.9005C200.098 92.9005 199.913 92.9471 199.773 93.0404C199.634 93.1337 199.449 93.2269 199.309 93.4135C199.17 93.5534 199.031 93.7399 198.892 93.9731C198.752 94.2063 198.66 94.4395 198.567 94.6727L198.288 97.1444H197.453V97.0978Z"/>
<path fill="white" d="M206.312 93.2733C206.312 93.5065 206.266 93.6931 206.173 93.833C206.08 94.0195 205.941 94.1594 205.709 94.2993C205.477 94.4393 205.152 94.5792 204.781 94.6724C204.363 94.7657 203.853 94.859 203.249 94.9056C203.249 94.9523 203.249 94.9523 203.249 94.9989C203.249 95.0455 203.249 95.0455 203.249 95.0922C203.249 95.5119 203.342 95.8384 203.528 96.0715C203.713 96.3047 203.992 96.398 204.363 96.398C204.502 96.398 204.642 96.398 204.781 96.3514C204.92 96.3047 205.013 96.2581 205.106 96.2115C205.198 96.1648 205.291 96.1182 205.338 96.0715C205.43 96.0249 205.477 95.9783 205.523 95.9316C205.57 95.885 205.662 95.8384 205.709 95.7917C205.755 95.7451 205.802 95.7451 205.848 95.7451C205.894 95.7451 205.941 95.7917 205.987 95.8384L206.219 96.1182C206.08 96.3047 205.894 96.4446 205.755 96.5379C205.616 96.6778 205.43 96.7711 205.291 96.8177C205.152 96.911 204.966 96.9576 204.781 97.0043C204.595 97.0509 204.409 97.0509 204.224 97.0509C203.945 97.0509 203.713 97.0043 203.481 96.911C203.249 96.8177 203.064 96.6778 202.925 96.5379C202.785 96.3514 202.646 96.1648 202.553 95.9316C202.46 95.6985 202.414 95.4186 202.414 95.1388C202.414 94.9056 202.46 94.6258 202.507 94.3926C202.553 94.1594 202.646 93.9263 202.739 93.6931C202.832 93.4599 202.971 93.2733 203.11 93.0868C203.249 92.9002 203.435 92.7137 203.621 92.5738C203.806 92.4339 203.992 92.3406 204.224 92.2473C204.456 92.1541 204.688 92.1074 204.966 92.1074C205.198 92.1074 205.43 92.1541 205.616 92.2007C205.802 92.2473 205.941 92.3406 206.034 92.4805C206.126 92.5738 206.219 92.7137 206.266 92.8536C206.312 93.0402 206.312 93.1801 206.312 93.2733ZM204.874 92.807C204.688 92.807 204.502 92.8536 204.317 92.9469C204.131 93.0402 203.992 93.1334 203.853 93.2733C203.713 93.4133 203.621 93.5998 203.528 93.7863C203.435 93.9729 203.342 94.2061 203.296 94.4393C203.806 94.3926 204.177 94.2994 204.456 94.2527C204.734 94.1594 204.966 94.1128 205.152 94.0195C205.291 93.9263 205.43 93.833 205.477 93.7397C205.523 93.6464 205.57 93.5065 205.57 93.4133C205.57 93.3666 205.57 93.2733 205.523 93.2267C205.477 93.1801 205.477 93.0868 205.384 93.0402C205.338 92.9935 205.245 92.9469 205.152 92.9002C205.106 92.807 205.013 92.807 204.874 92.807Z"/>
<path fill="white" d="M112.578 98.1247V89.2637H114.527V89.73C114.527 89.8233 114.481 89.8699 114.434 89.9632C114.388 90.0565 114.295 90.0565 114.202 90.0565H113.553V97.3785H114.202C114.295 97.3785 114.388 97.4251 114.434 97.4717C114.481 97.5184 114.527 97.6117 114.527 97.7049V98.1713H112.578V98.1247Z"/>
<path fill="white" d="M207.195 98.1244V97.658C207.195 97.5648 207.242 97.5181 207.288 97.4249C207.335 97.3782 207.427 97.3316 207.52 97.3316H208.17V90.0096H207.52C207.427 90.0096 207.335 89.963 207.288 89.9163C207.242 89.8697 207.195 89.7764 207.195 89.6832V89.2168H209.144V98.0778H207.195V98.1244Z"/>
<path fill="white" d="M246.362 95.4652C247.079 95.4652 247.661 94.8805 247.661 94.1593C247.661 93.4381 247.079 92.8535 246.362 92.8535C245.644 92.8535 245.062 93.4381 245.062 94.1593C245.062 94.8805 245.644 95.4652 246.362 95.4652Z"/>
</svg>