<svg width="32" height="32" viewBox="0 0 32 32" fill="none" xmlns="http://www.w3.org/2000/svg">
<path d="M2 25C2 24.7348 2.10536 24.4804 2.29289 24.2929C2.48043 24.1054 2.73478 24 3 24L29 24C29.2652 24 29.5196 24.1054 29.7071 24.2929C29.8946 24.4804 30 24.7348 30 25C30 25.2652 29.8946 25.5196 29.7071 25.7071C29.5196 25.8946 29.2652 26 29 26L3 26C2.73478 26 2.48043 25.8946 2.29289 25.7071C2.10536 25.5196 2 25.2652 2 25ZM7 17L29 17C29.2652 17 29.5196 16.8946 29.7071 16.7071C29.8946 16.5196 30 16.2652 30 16C30 15.7348 29.8946 15.4804 29.7071 15.2929C29.5196 15.1054 29.2652 15 29 15L7 15C6.73479 15 6.48043 15.1054 6.29289 15.2929C6.10536 15.4804 6 15.7348 6 16C6 16.2652 6.10536 16.5196 6.29289 16.7071C6.48043 16.8946 6.73479 17 7 17ZM16 8L29 8C29.2652 8 29.5196 7.89465 29.7071 7.70711C29.8946 7.51957 30 7.26522 30 7C30 6.73479 29.8946 6.48043 29.7071 6.2929C29.5196 6.10536 29.2652 6 29 6L16 6C15.7348 6 15.4804 6.10536 15.2929 6.29289C15.1054 6.48043 15 6.73479 15 7C15 7.26522 15.1054 7.51957 15.2929 7.70711C15.4804 7.89465 15.7348 8 16 8Z" fill="white" fill-opacity="0.7"/>
</svg>
