<svg width="20" height="26" viewBox="0 0 20 26" fill="none" xmlns="http://www.w3.org/2000/svg">
<path d="M10 1.625C7.67936 1.625 5.45376 2.54687 3.81282 4.18782C2.17187 5.82876 1.25 8.05436 1.25 10.375C1.25 18.25 10 24.375 10 24.375C10 24.375 18.75 18.25 18.75 10.375C18.75 8.05436 17.8281 5.82876 16.1872 4.18782C14.5462 2.54687 12.3206 1.625 10 1.625ZM10 13.875C9.30777 13.875 8.63108 13.6697 8.0555 13.2851C7.47993 12.9006 7.03133 12.3539 6.76642 11.7144C6.50151 11.0749 6.4322 10.3711 6.56725 9.69218C6.7023 9.01325 7.03564 8.38961 7.52513 7.90013C8.01461 7.41064 8.63825 7.0773 9.31718 6.94225C9.99612 6.8072 10.6999 6.87651 11.3394 7.14142C11.9789 7.40633 12.5256 7.85493 12.9101 8.4305C13.2947 9.00608 13.5 9.68277 13.5 10.375C13.5 11.3033 13.1313 12.1935 12.4749 12.8499C11.8185 13.5063 10.9283 13.875 10 13.875Z" fill="#FFCC00"/>
</svg>
