<svg width="20" height="20" viewBox="0 0 20 20" fill="none" xmlns="http://www.w3.org/2000/svg">
<path d="M18.528 14.678L16.0108 11.8869C15.1117 10.8901 13.5834 11.2889 13.2238 12.5847C12.9541 13.4818 12.0551 13.9802 11.246 13.7808C9.44795 13.2824 7.02061 10.6907 6.57111 8.59745C6.3014 7.70029 6.84081 6.70348 7.64992 6.40448C8.81864 6.00575 9.17825 4.31119 8.27923 3.31438L5.76199 0.523323C5.04278 -0.174441 3.96397 -0.174441 3.33466 0.523323L1.62653 2.41725C-0.0815973 4.41087 1.80633 9.69394 6.0317 14.3789C10.2571 19.0639 15.0218 21.2569 16.8199 19.2633L18.528 17.3693C19.1573 16.5719 19.1573 15.3757 18.528 14.678Z" fill="#FFCC00"/>
</svg>
